<svg width="34" height="37" viewBox="0 0 34 37" fill="none" xmlns="http://www.w3.org/2000/svg">
<rect x="1" width="32" height="32" rx="3" fill="white"/>
<g filter="url(#filter0_d_4533_729)">
<path d="M7.33333 2.5C5.76853 2.5 4.5 3.76853 4.5 5.33333C4.5 6.89814 5.76853 8.16667 7.33333 8.16667C8.89814 8.16667 10.1667 6.89814 10.1667 5.33333C10.1667 3.76853 8.89814 2.5 7.33333 2.5Z" fill="black"/>
<path d="M4.66667 10.5C4.57462 10.5 4.5 10.5746 4.5 10.6667V28C4.5 28.092 4.57462 28.1667 4.66667 28.1667H10C10.092 28.1667 10.1667 28.092 10.1667 28V10.6667C10.1667 10.5746 10.092 10.5 10 10.5H4.66667Z" fill="black"/>
<path d="M13.3333 10.5C13.2413 10.5 13.1667 10.5746 13.1667 10.6667V28C13.1667 28.092 13.2413 28.1667 13.3333 28.1667H18.6667C18.7587 28.1667 18.8333 28.092 18.8333 28V18.6667C18.8333 18.0036 19.0967 17.3677 19.5656 16.8989C20.0344 16.4301 20.6703 16.1667 21.3333 16.1667C21.9964 16.1667 22.6323 16.4301 23.1011 16.8989C23.5699 17.3677 23.8333 18.0036 23.8333 18.6667V28C23.8333 28.092 23.908 28.1667 24 28.1667H29.3333C29.4254 28.1667 29.5 28.092 29.5 28V16.507C29.5 13.2713 26.6859 10.74 23.4665 11.0327C22.4736 11.1229 21.4919 11.3697 20.5753 11.7626L18.8333 12.5091V10.6667C18.8333 10.5746 18.7587 10.5 18.6667 10.5H13.3333Z" fill="black"/>
</g>
<defs>
<filter id="filter0_d_4533_729" x="0.5" y="2.5" width="33" height="33.6667" filterUnits="userSpaceOnUse" color-interpolation-filters="sRGB">
<feFlood flood-opacity="0" result="BackgroundImageFix"/>
<feColorMatrix in="SourceAlpha" type="matrix" values="0 0 0 0 0 0 0 0 0 0 0 0 0 0 0 0 0 0 127 0" result="hardAlpha"/>
<feOffset dy="4"/>
<feGaussianBlur stdDeviation="2"/>
<feComposite in2="hardAlpha" operator="out"/>
<feColorMatrix type="matrix" values="0 0 0 0 0 0 0 0 0 0 0 0 0 0 0 0 0 0 0.25 0"/>
<feBlend mode="normal" in2="BackgroundImageFix" result="effect1_dropShadow_4533_729"/>
<feBlend mode="normal" in="SourceGraphic" in2="effect1_dropShadow_4533_729" result="shape"/>
</filter>
</defs>
</svg>
