<svg width="34" height="35" viewBox="0 0 34 35" fill="none" xmlns="http://www.w3.org/2000/svg">
<g filter="url(#filter0_d_52141_422)">
<path d="M7.33333 0.5C5.76853 0.5 4.5 1.76853 4.5 3.33333C4.5 4.89814 5.76853 6.16667 7.33333 6.16667C8.89814 6.16667 10.1667 4.89814 10.1667 3.33333C10.1667 1.76853 8.89814 0.5 7.33333 0.5Z" fill="black"/>
<path d="M4.66667 8.5C4.57462 8.5 4.5 8.57462 4.5 8.66667V26C4.5 26.092 4.57462 26.1667 4.66667 26.1667H10C10.092 26.1667 10.1667 26.092 10.1667 26V8.66667C10.1667 8.57462 10.092 8.5 10 8.5H4.66667Z" fill="black"/>
<path d="M13.3333 8.5C13.2413 8.5 13.1667 8.57462 13.1667 8.66667V26C13.1667 26.092 13.2413 26.1667 13.3333 26.1667H18.6667C18.7587 26.1667 18.8333 26.092 18.8333 26V16.6667C18.8333 16.0036 19.0967 15.3677 19.5656 14.8989C20.0344 14.4301 20.6703 14.1667 21.3333 14.1667C21.9964 14.1667 22.6323 14.4301 23.1011 14.8989C23.5699 15.3677 23.8333 16.0036 23.8333 16.6667V26C23.8333 26.092 23.908 26.1667 24 26.1667H29.3333C29.4254 26.1667 29.5 26.092 29.5 26V14.507C29.5 11.2713 26.6859 8.73999 23.4665 9.03266C22.4736 9.12292 21.4919 9.36974 20.5753 9.76259L18.8333 10.5091V8.66667C18.8333 8.57462 18.7587 8.5 18.6667 8.5H13.3333Z" fill="black"/>
</g>
<defs>
<filter id="filter0_d_52141_422" x="0.5" y="0.5" width="33" height="33.6667" filterUnits="userSpaceOnUse" color-interpolation-filters="sRGB">
<feFlood flood-opacity="0" result="BackgroundImageFix"/>
<feColorMatrix in="SourceAlpha" type="matrix" values="0 0 0 0 0 0 0 0 0 0 0 0 0 0 0 0 0 0 127 0" result="hardAlpha"/>
<feOffset dy="4"/>
<feGaussianBlur stdDeviation="2"/>
<feComposite in2="hardAlpha" operator="out"/>
<feColorMatrix type="matrix" values="0 0 0 0 0 0 0 0 0 0 0 0 0 0 0 0 0 0 0.25 0"/>
<feBlend mode="normal" in2="BackgroundImageFix" result="effect1_dropShadow_52141_422"/>
<feBlend mode="normal" in="SourceGraphic" in2="effect1_dropShadow_52141_422" result="shape"/>
</filter>
</defs>
</svg>
